<?xml version="1.0" encoding="UTF-8" standalone="no"?>
<svg width="11px" height="11px" viewBox="0 0 11 11" version="1.1" xmlns="http://www.w3.org/2000/svg" xmlns:xlink="http://www.w3.org/1999/xlink">
    <!-- Generator: Sketch 44.1 (41455) - http://www.bohemiancoding.com/sketch -->
    <title>noun_1081855_8B8B8B</title>
    <desc>Created with Sketch.</desc>
    <defs></defs>
    <g id="Design-Guidelines" stroke="none" stroke-width="1" fill="none" fill-rule="evenodd">
        <g id="Login" transform="translate(-408.000000, -275.000000)" fill-rule="nonzero" fill="#8B8B8B">
            <g id="Group-3" transform="translate(378.000000, 137.000000)">
                <g id="noun_1081855_8B8B8B" transform="translate(30.000000, 138.000000)">
                    <path d="M10.0833333,4.76666667 L9.39583333,4.76666667 L9.39583333,3.20833333 C9.39583333,1.43935 7.59664583,0 5.38541667,0 C3.1741875,0 1.375,1.43935 1.375,3.20833333 L1.375,4.76666667 L0.916666667,4.76666667 C0.4104375,4.76666667 0,5.09501667 0,5.5 L0,10.2666667 C0,10.67165 0.4104375,11 0.916666667,11 L10.0833333,11 C10.5895625,11 11,10.67165 11,10.2666667 L11,5.5 C11,5.09501667 10.5895625,4.76666667 10.0833333,4.76666667 Z M6.1875,8.61666667 C6.1875,8.92045 5.87972917,9.16666667 5.5,9.16666667 C5.12027083,9.16666667 4.8125,8.92045 4.8125,8.61666667 L4.8125,7.15 C4.8125,6.84621667 5.12027083,6.6 5.5,6.6 C5.87972917,6.6 6.1875,6.84621667 6.1875,7.15 L6.1875,8.61666667 Z M2.75,4.76666667 L2.75,3.20833333 C2.75,2.04581667 3.93227083,1.1 5.38541667,1.1 C6.8385625,1.1 8.02083333,2.04581667 8.02083333,3.20833333 L8.02083333,4.76666667 L2.75,4.76666667 Z" id="Shape"></path>
                </g>
            </g>
        </g>
    </g>
</svg>