<?xml version="1.0" encoding="UTF-8" standalone="no"?>
<svg width="11px" height="11px" viewBox="0 0 11 11" version="1.1" xmlns="http://www.w3.org/2000/svg" xmlns:xlink="http://www.w3.org/1999/xlink">
    <!-- Generator: Sketch 44.1 (41455) - http://www.bohemiancoding.com/sketch -->
    <title>noun_464789_8B8B8B</title>
    <desc>Created with Sketch.</desc>
    <defs></defs>
    <g id="Design-Guidelines" stroke="none" stroke-width="1" fill="none" fill-rule="evenodd">
        <g id="Login" transform="translate(-408.000000, -235.000000)" fill-rule="nonzero" fill="#8B8B8B">
            <g id="Group-3" transform="translate(378.000000, 137.000000)">
                <g id="noun_464789_8B8B8B" transform="translate(30.000000, 98.000000)">
                    <g id="Group-4">
                        <path d="M8.38322222,5.36787778 C7.71381111,6.22795556 6.67198889,6.78431111 5.50073333,6.78431111 C4.32874444,6.78431111 3.28655556,6.22758889 2.61726667,5.36763333 C1.02972222,6.48938889 0.000855555556,8.42685556 0.000855555556,10.4020889 C0.000855555556,10.7125333 0.252633333,10.9645556 0.5632,10.9645556 L10.4369222,10.9645556 C10.7476111,10.9645556 10.9993889,10.7125333 10.9993889,10.4020889 C10.9992667,8.42685556 9.9704,6.48938889 8.38322222,5.36787778 Z" id="Shape"></path>
                        <path d="M8.59295556,3.1284 C8.59295556,4.83694444 7.20854444,6.22196667 5.50073333,6.22196667 C3.79194444,6.22196667 2.40741111,4.83694444 2.40741111,3.1284 C2.40741111,1.42022222 3.79182222,0.0354444444 5.50073333,0.0354444444 C7.20854444,0.0354444444 8.59295556,1.42022222 8.59295556,3.1284 Z" id="Shape"></path>
                    </g>
                </g>
            </g>
        </g>
    </g>
</svg>